# xmcd
#
# Track frame offsets:
#	150
#	19310
#	33815
#	49217
#	62310
#	76825
#	94630
#	114850
#	130515
#	140172
#	151575
#	166432
#	180225
#	193230
#	205285
#	218190
#	239717
#	252492
#	265110
#	276390
#	289592
#	304250
#	318752
#
# Disc length: 4407 seconds
#
# Revision: 2
# Processed by: cddbd v1.5PL3 Copyright (c) Steve Scherf et al.
# Submitted via: MusicWizard 7.0.2
#
DISCID=41113517
DTITLE=Dr. John - Gumbo and In The Right Place
DYEAR=1972
DGENRE=Blues
TTITLE0=Iko Iko
TTITLE1=Blow Wind Blow
TTITLE2=Big Chief
TTITLE3=Somebody Changed The Lock
TTITLE4=Mess Around
TTITLE5=Let The Good Times Roll
TTITLE6=Junko Partner
TTITLE7=Stack-A-Lee
TTITLE8=Tipitina
TTITLE9=Those Lonely Lonely Nights
TTITLE10=Huey Smith Medley
TTITLE11=Little Liza Jane
TTITLE12=Right Place Wrong Time
TTITLE13=Same Old Same Old
TTITLE14=Just The Same
TTITLE15=Qualified
TTITLE16=Traveling Mood
TTITLE17=Peace Brother Peace
TTITLE18=Life
TTITLE19=Such A Night
TTITLE20=Shoo Fly Marches On
TTITLE21=I Been Hoodood
TTITLE22=Cold Cold Cold
EXTD=
EXTT0=
EXTT1=
EXTT2=
EXTT3=
EXTT4=
EXTT5=
EXTT6=
EXTT7=
EXTT8=
EXTT9=
EXTT10=
EXTT11=
EXTT12=
EXTT13=
EXTT14=
EXTT15=
EXTT16=
EXTT17=
EXTT18=
EXTT19=
EXTT20=
EXTT21=
EXTT22=
PLAYORDER=
